#!OML:ASF F:\VICON\USERDATA\INSTALL\rory3\rory3.ASF
:FULLY-SPECIFIED
:DEGREES
333
root 7.6763 17.8037 12.7066 261.248 86.3005 264.065
lowerback 11.3805 2.71336 4.57821
upperback 1.09095 4.27029 0.691096
thorax -4.94931 2.04081 -2.49971
lowerneck -19.1006 -6.13441 -11.9393
upperneck 29.2622 -6.46064 6.65231
head 13.7819 -3.07306 3.58884
rclavicle -2.35808e-014 1.31695e-015
rhumerus -22.8355 -6.40434 -81.7344
rradius 35.87
rwrist 1.13839
rhand -18.1431 8.9927
rfingers 7.12502
rthumb 8.13223 -20.8308
lclavicle -2.35808e-014 1.31695e-015
lhumerus -39.6373 11.7317 78.4027
lradius 26.5568
lwrist -8.90189
lhand -18.0724 25.9287
lfingers 7.12502
lthumb 8.20044 55.7496
rfemur 7.98903 4.22336 28.5636
rtibia 20.5079
rfoot -16.6138 -3.07484
rtoes 5.03687
lfemur -22.4485 -4.35232 -13.7633
ltibia 18.8926
lfoot -6.18942 3.60753
ltoes 0.945996
334
root 7.81756 17.7979 12.6879 264.951 86.0668 267.532
lowerback 11.0905 2.72373 4.78112
upperback 1.0725 4.29686 0.768753
thorax -4.79676 2.05476 -2.51781
lowerneck -19.178 -6.09352 -12.007
upperneck 29.2685 -6.38755 6.70587
head 13.7976 -3.04148 3.63486
rclavicle 1.60433e-014 6.27414e-015
rhumerus -22.3752 -6.18319 -81.8102
rradius 36.0009
rwrist 0.923742
rhand -18.3062 9.15947
rfingers 7.12502
rthumb 7.97477 -20.6701
lclavicle 1.60433e-014 6.27414e-015
lhumerus -39.6795 11.9926 78.2867
lradius 26.101
lwrist -9.2729
lhand -17.6423 25.9598
lfingers 7.12502
lthumb 8.61551 55.764
rfemur 8.37884 4.37053 28.7898
rtibia 20.2363
rfoot -16.5593 -3.01743
rtoes 4.42326
lfemur -22.6783 -4.88454 -13.1965
ltibia 17.5411
lfoot -6.45966 3.8059
ltoes 2.71154
335
root 7.96009 17.7871 12.6687 267.731 86.2029 270.127
lowerback 10.9117 2.72083 4.51285
upperback 1.02253 4.25082 0.791884
thorax -4.77416 2.03659 -2.32894
lowerneck -19.3081 -6.02739 -12.0774
upperneck 29.4241 -6.2617 6.73761
head 13.882 -2.98891 3.68671
rclavicle -1.31326e-014 -6.65307e-015
rhumerus -22.0177 -6.07282 -81.9119
rradius 36.1253
rwrist 1.22158
rhand -18.3091 9.5504
rfingers 7.12502
rthumb 7.97204 -20.2793
lclavicle -1.31326e-014 -6.65307e-015
lhumerus -39.9189 12.1584 78.2518
lradius 25.7989
lwrist -9.50679
lhand -17.4929 25.8926
lfingers 7.12502
lthumb 8.75968 55.6908
rfemur 8.72113 4.44938 28.57
rtibia 20.1697
rfoot -16.5433 -2.86306
rtoes 4.07235
lfemur -22.7729 -4.94602 -13.2663
ltibia 16.3131
lfoot -6.54293 3.64642
ltoes 0.875325
336
root 8.10549 17.7793 12.6462 270.458 86.6933 272.824
lowerback 10.8008 2.76423 3.98495
upperback 1.06509 4.22838 0.651292
thorax -4.69597 2.03665 -2.17012
lowerneck -19.4441 -6.02828 -12.0257
upperneck 29.5376 -6.25614 6.70546
head 13.9561 -2.98361 3.6677
rclavicle 2.40576e-014 6.44342e-015
rhumerus -21.6147 -6.0394 -82.0534
rradius 36.2907
rwrist 1.41708
rhand -18.2422 9.57984
rfingers 7.12502
rthumb 8.03658 -20.2474
lclavicle 2.40576e-014 6.44342e-015
lhumerus -40.0132 12.3869 78.1015
lradius 25.4542
lwrist -10.3191
lhand -17.2024 26.2965
lfingers 7.12502
lthumb 9.04008 56.0828
rfemur 9.12987 4.70772 28.0093
rtibia 20.3084
rfoot -16.5367 -2.83465
rtoes 3.78039
lfemur -22.5085 -5.04271 -13.7445
ltibia 15.2443
lfoot -6.8466 3.4429
ltoes -0.0210089
337
root 8.25086 17.7687 12.6241 272.428 87.1715 274.943
lowerback 10.8933 2.84509 3.49059
upperback 1.11441 4.27099 0.501484
thorax -4.71705 2.06573 -2.06063
lowerneck -19.3432 -6.05677 -11.9155
upperneck 29.5451 -6.32803 6.6496
head 13.9389 -3.01019 3.61424
rclavicle 2.01743e-014 7.43579e-015
rhumerus -21.3384 -6.0677 -82.0505
rradius 36.4225
rwrist 1.4725
rhand -17.8589 9.8367
rfingers 7.12502
rthumb 8.40655 -19.976
lclavicle 2.01743e-014 7.43579e-015
lhumerus -40.0536 12.3278 78.0253
lradius 25.0775
lwrist -11.1893
lhand -16.6155 26.4082
lfingers 7.12502
lthumb 9.60632 56.1692
rfemur 9.72315 4.81059 27.4582
rtibia 20.5293
rfoot -16.6239 -2.77541
rtoes 2.29048
lfemur -22.1555 -4.51995 -14.4913
ltibia 14.5029
lfoot -6.8489 2.78597
ltoes -4.12068
338
root 8.39171 17.7502 12.6018 272.175 87.0178 274.691
lowerback 10.9208 2.89705 3.64417
upperback 1.07156 4.35959 0.490526
thorax -4.76001 2.10449 -2.17304
lowerneck -19.1051 -6.07351 -11.7306
upperneck 29.4721 -6.44593 6.66477
head 13.8614 -3.03958 3.56848
rclavicle 3.58434e-015 -8.44835e-016
rhumerus -21.233 -6.11108 -82.0513
rradius 36.6418
rwrist 1.38581
rhand -17.6896 10.0228
rfingers 7.12502
rthumb 8.5699 -19.7833
lclavicle 3.58434e-015 -8.44835e-016
lhumerus -40.1254 12.0592 78.042
lradius 24.7507
lwrist -11.6985
lhand -16.1582 26.103
lfingers 7.12502
lthumb 10.0476 55.8431
rfemur 10.1166 4.87496 27.6225
rtibia 20.808
rfoot -16.653 -2.96208
rtoes 0.150547
lfemur -21.9209 -3.95054 -14.6464
ltibia 14.0753
lfoot -6.57555 2.28007
ltoes -10.2955
339
root 8.5318 17.7429 12.5788 270.561 86.6986 273.02
lowerback 10.9311 2.81281 3.98317
upperback 1.03374 4.2945 0.563036
thorax -4.79044 2.06516 -2.27926
lowerneck -19.1476 -6.06014 -11.8026
upperneck 29.536 -6.44106 6.79797
head 13.9061 -3.02681 3.63795
rclavicle -2.22406e-014 6.73383e-015
rhumerus -21.0762 -5.78087 -82.1672
rradius 36.9496
rwrist 1.25513
rhand -18.2853 9.72615
rfingers 7.12502
rthumb 7.99501 -20.1026
lclavicle -2.22406e-014 6.73383e-015
lhumerus -40.2162 12.168 77.9564
lradius 24.4641
lwrist -12.2658
lhand -16.4588 26.0329
lfingers 7.12502
lthumb 9.75756 55.7868
rfemur 10.4503 5.0713 28.0017
rtibia 21.0294
rfoot -16.5481 -3.06891
rtoes -0.382709
lfemur -21.8579 -4.70804 -14.0866
ltibia 14.2255
lfoot -6.53338 2.3659
ltoes -5.29859
